<?xml version="1.0" encoding="utf-8"?>
<!-- Generator: Adobe Illustrator 18.1.0, SVG Export Plug-In . SVG Version: 6.00 Build 0)  -->
<!DOCTYPE svg PUBLIC "-//W3C//DTD SVG 1.1//EN" "http://www.w3.org/Graphics/SVG/1.1/DTD/svg11.dtd">
<svg version="1.1" xmlns="http://www.w3.org/2000/svg" xmlns:xlink="http://www.w3.org/1999/xlink" x="0px" y="0px"
	 viewBox="0 0 360.4 128.8" enable-background="new 0 0 360.4 128.8" xml:space="preserve">
<g>
	<polygon points="9.3,112.9 9.3,105.4 18.5,105.4 18.5,102.5 9.3,102.5 9.3,98.3 19.2,98.3 19.2,95.4 4.3,95.4 4.3,112.9 9.3,112.9 
			"/>
	<polygon points="24,95.4 29,95.4 29,112.9 24,112.9 24,95.4 	"/>
	<polygon points="56,112.9 56,95.4 51.4,95.4 51.4,109.1 51.3,109.2 42.6,95.4 35.2,95.4 35.2,112.9 39.9,112.9 39.9,98.4 
		39.9,98.4 49,112.9 56,112.9 	"/>
	<polygon points="62,112.9 77.8,112.9 77.8,110 66.9,110 66.9,105.3 76.8,105.3 76.8,102.4 66.9,102.4 66.9,98.3 77.4,98.3 
		77.4,95.4 62,95.4 62,112.9 	"/>
	<path d="M100.4,100.4c0-3.5-3.5-5.3-8-5.3c-4.7,0-9.6,1.8-9.6,5.8c0,3.1,4.4,4.2,7.6,4.8c2,0.4,5.3,0.5,5.3,2.6
		c0,1.9-2.6,2.3-4.6,2.3c-2.6,0-4.1-1.3-3.9-3.2h-5c-0.2,4.4,3.6,5.9,8.8,5.9c4.9,0,9.9-1.5,9.9-5.8c0-3.5-5.2-4.3-8.7-4.9
		c-2-0.4-4.2-0.6-4.2-2.5c0-1.5,1.9-2.2,3.7-2.2c2.4,0,3.6,0.9,3.8,2.6H100.4L100.4,100.4z"/>
	<polygon points="104.1,98.3 111,98.3 111,112.9 115.9,112.9 115.9,98.3 122.8,98.3 122.8,95.4 104.1,95.4 104.1,98.3 	"/>
	<polygon points="144.8,95.4 149.8,95.4 149.8,112.9 144.8,112.9 144.8,95.4 	"/>
	<polygon points="176.8,112.9 176.8,95.4 172.2,95.4 172.2,109.1 172.1,109.2 163.3,95.4 156,95.4 156,112.9 160.6,112.9 
		160.6,98.4 160.7,98.4 169.8,112.9 176.8,112.9 	"/>
	<path fill-rule="evenodd" clip-rule="evenodd" d="M206.4,110v-4.6h3.9c2.3,0,3.9,0.3,3.9,2.3c0,2-1.6,2.3-3.9,2.3H206.4L206.4,110z
		 M206.4,102.4v-4.1h3.9c2.1,0,3.2,0.7,3.2,2.1c0,1.4-1.1,2.1-3.2,2.1H206.4L206.4,102.4z M210.2,112.9c3.5,0.2,9.3-1.1,9.3-4.5
		c0-2.6-2.2-4.1-5.1-4.5v0c2.3-0.6,4-1.9,4-3.8c0-3.4-4.2-4.7-8.3-4.5h-8.6v17.5H210.2L210.2,112.9z"/>
	<polygon points="239.9,112.9 239.9,110 229.9,110 229.9,95.4 225,95.4 225,112.9 239.9,112.9 	"/>
	<path fill-rule="evenodd" clip-rule="evenodd" d="M247.8,112.9l1.7-3.7h9.1l1.7,3.7h5l-8-17.5h-5.9l-8.3,17.5H247.8L247.8,112.9z
		 M250.8,106.3l3.4-7.4h0.1l3.2,7.4H250.8L250.8,106.3z"/>
	<path fill-rule="evenodd" clip-rule="evenodd" d="M274,98.3h2.6c5.9,0,6.7,3,6.7,5.8c0,2.8-0.9,5.9-6.7,5.8H274V98.3L274,98.3z
		 M269,112.9h7.9c7.2,0,11.6-2.7,11.6-8.7c0-6.1-4.5-8.8-11.6-8.7H269V112.9L269,112.9z"/>
	<polygon points="294.1,112.9 309.9,112.9 309.9,110 299,110 299,105.3 308.8,105.3 308.8,102.4 299,102.4 299,98.3 309.5,98.3 
		309.5,95.4 294.1,95.4 294.1,112.9 	"/>
	<path d="M332.2,100.4c0-3.5-3.5-5.3-7.9-5.3c-4.7,0-9.6,1.8-9.6,5.8c0,3.1,4.4,4.2,7.6,4.8c2,0.4,5.3,0.5,5.3,2.6
		c0,1.9-2.6,2.3-4.6,2.3c-2.6,0-4.1-1.3-3.9-3.2h-5c-0.2,4.4,3.6,5.9,8.8,5.9c4.9,0,9.9-1.5,9.9-5.8c0-3.5-5.2-4.3-8.7-4.9
		c-2-0.4-4.2-0.6-4.2-2.5c0-1.5,1.8-2.2,3.7-2.2c2.4,0,3.6,0.9,3.8,2.6H332.2L332.2,100.4z"/>
</g>
<path fill-rule="evenodd" clip-rule="evenodd" d="M337.2,14.7c0,5.1,4.1,8.9,8.9,8.9c4.9,0,8.9-3.8,8.9-8.9c0-5.1-4.1-8.9-8.9-8.9
	C341.2,5.8,337.2,9.6,337.2,14.7L337.2,14.7z M338.8,14.7c0-4.3,3.2-7.6,7.3-7.6c4.1,0,7.3,3.3,7.3,7.6s-3.3,7.6-7.3,7.6
	C342,22.4,338.8,19,338.8,14.7L338.8,14.7z M349.8,19.6c-0.2-0.3-1-1.6-1.4-2.3c-0.3-0.5-0.6-1-0.8-1.2c-0.2-0.2-0.4-0.6-0.9-0.9
	c1.7,0,2.7-1.2,2.7-2.7c0-1-0.4-1.6-0.9-2c-0.5-0.5-1.2-0.7-2.4-0.7h-2.8v9.9h1.4v-4.4c0.4,0,0.6,0.2,0.9,0.5c0.7,0.8,1,1.2,1.7,2.5
	c0.4,0.7,0.5,0.9,0.8,1.5H349.8L349.8,19.6z M347.9,12.5c0,0.6-0.2,1.1-0.5,1.3c-0.4,0.3-0.8,0.5-1.7,0.5h-1v-3.5h1
	c0.5,0,0.9,0.1,1.2,0.2C347.5,11.2,347.9,11.8,347.9,12.5L347.9,12.5z"/>
<polygon fill="#C20E1A" points="4.7,5.2 332.6,5.2 332.6,76.2 4.7,76.2 4.7,5.2 "/>
<polygon fill="#FFFFFF" points="28.6,61.1 15.9,61.1 15.9,22.7 37.8,22.7 44,42.7 49.7,22.8 72.1,22.8 72.1,61.1 60.4,61.1 
	60.4,33.5 51.3,61.1 37.8,61.1 28.7,34.8 28.6,61.1 "/>
<polygon fill="#FFFFFF" points="136.1,31.4 136.1,22.8 179.7,22.8 179.7,30.5 154.8,50.7 181.9,50.7 188.8,22.8 221.1,22.8 
	232.2,61.1 220.3,61.1 216.8,50.5 193.8,50.5 190.5,61.1 136.5,61.1 136.5,51.4 159.5,31.4 136.1,31.4 "/>
<path fill="#FFFFFF" d="M247.4,61.1h-12.8V22.8h36.2c0,0,8.7,0.8,9.1,13.8c0.3,9.8-6.1,11.3-6.1,11.3l6.7,13.2h-13.8l-4.6-10.6
	h-14.8V61.1L247.4,61.1z"/>
<polygon fill="#FFFFFF" points="296.8,61.1 296.8,31.4 278.4,31.4 278.4,22.8 324.9,22.8 324.9,31.4 307.6,31.4 307.6,61.1 
	296.8,61.1 "/>
<polygon fill="#C20E1A" points="196.2,39.6 198.4,31.4 212.5,31.4 214.6,39.6 196.2,39.6 "/>
<path fill="#C20E1A" d="M264.6,31.4h-17.2v8.2H265c0,0,2.2,0,2.2-4.3C267.2,31,264.6,31.4,264.6,31.4L264.6,31.4z"/>
<path fill-rule="evenodd" clip-rule="evenodd" fill="#FFFFFF" d="M107.4,62.7L107.4,62.7c-17,0-28.8-5.4-29.7-21.1l0,0
	c0-13.8,10.9-21.7,29.7-21.1l0,0h-4.2l0,0c18.8-0.6,29.7,7.2,29.7,21.1l0,0c-0.9,15.6-12.7,21.1-29.7,21.1h-0.1H107.4L107.4,62.7z"
	/>
<path fill-rule="evenodd" clip-rule="evenodd" fill="#C20E1A" d="M106.6,52.4L106.6,52.4c-9.5,0-16.2-2.7-16.7-10.5l0,0
	c0-6.9,6.1-10.8,16.6-10.5l0,0h-2.4l0,0c10.5-0.3,16.6,3.6,16.6,10.5l0,0c-0.5,7.8-7.1,10.5-16.6,10.5h0H106.6L106.6,52.4z"/>
<line fill="none" stroke="#C20E1A" stroke-width="3.0652" stroke-miterlimit="3.8637" x1="3.9" y1="121.7" x2="333.1" y2="121.7"/>
</svg>
